<svg width="155" height="80" viewBox="0 0 155 80" fill="none" xmlns="http://www.w3.org/2000/svg">
<g clip-path="url(#clip0_7_211)">
<mask id="mask0_7_211" style="mask-type:alpha" maskUnits="userSpaceOnUse" x="4" y="0" width="76" height="34">
<path d="M80 0H4.04041V34H80V0Z" fill="#D9D9D9"/>
</mask>
<g mask="url(#mask0_7_211)">
<path d="M41.6749 74.1045C36.2082 74.1045 30.9749 73.3566 25.9749 71.8607C20.9749 70.2998 17.0082 68.3162 14.0749 65.9098L18.5749 56.0565C21.3749 58.2028 24.8416 59.9913 28.9749 61.4221C33.1082 62.853 37.3416 63.5684 41.6749 63.5684C45.3416 63.5684 48.3082 63.1782 50.5749 62.3977C52.8416 61.6172 54.5082 60.5766 55.5749 59.2759C56.6416 57.9101 57.1749 56.3817 57.1749 54.6907C57.1749 52.6095 56.4082 50.9511 54.8749 49.7153C53.3416 48.4146 51.3416 47.4064 48.8749 46.6911C46.4749 45.9106 43.7749 45.1952 40.7749 44.5448C37.8416 43.8944 34.8749 43.1465 31.8749 42.301C28.9416 41.3905 26.2416 40.2523 23.7749 38.8865C21.3749 37.4557 19.4082 35.5696 17.8749 33.2282C16.3416 30.8869 15.5749 27.8951 15.5749 24.253C15.5749 20.5458 16.5749 17.1638 18.5749 14.1071C20.6416 10.9853 23.7416 8.51384 27.8749 6.69278C32.0749 4.80668 37.3749 3.86363 43.7749 3.86363C47.9749 3.86363 52.1416 4.38394 56.2749 5.42455C60.4082 6.46515 64.0082 7.96102 67.0749 9.91216L62.9749 19.7654C59.8416 17.9443 56.6082 16.6111 53.2749 15.7656C49.9416 14.8551 46.7416 14.3998 43.6749 14.3998C40.0749 14.3998 37.1416 14.8225 34.8749 15.668C32.6749 16.5135 31.0416 17.6191 29.9749 18.9849C28.9749 20.3507 28.4749 21.9116 28.4749 23.6677C28.4749 25.7488 29.2082 27.4399 30.6749 28.7406C32.2082 29.9764 34.1749 30.9519 36.5749 31.6673C39.0416 32.3827 41.7749 33.0982 44.7749 33.8136C47.7749 34.464 50.7416 35.2118 53.6749 36.0574C56.6749 36.9029 59.3749 38.0085 61.7749 39.3743C64.2416 40.7401 66.2082 42.5937 67.6749 44.935C69.2082 47.2764 69.9749 50.2356 69.9749 53.8127C69.9749 57.4548 68.9416 60.8368 66.8749 63.9586C64.8749 67.0154 61.7749 69.4869 57.5749 71.3729C53.3749 73.194 48.0749 74.1045 41.6749 74.1045Z" fill="#CB1B28"/>
</g>
<mask id="mask1_7_211" style="mask-type:alpha" maskUnits="userSpaceOnUse" x="0" y="45" width="76" height="35">
<path d="M75.9596 45.1485H0V80H75.9596V45.1485Z" fill="#D9D9D9"/>
</mask>
<g mask="url(#mask1_7_211)">
<path d="M41.6749 75.9604C36.2082 75.9604 30.9749 75.1937 25.9749 73.6604C20.9749 72.0604 17.0082 70.0271 14.0749 67.5604L18.5749 57.4604C21.3749 59.6604 24.8416 61.4937 28.9749 62.9604C33.1082 64.4271 37.3416 65.1604 41.6749 65.1604C45.3416 65.1604 48.3082 64.7604 50.5749 63.9604C52.8416 63.1604 54.5082 62.0937 55.5749 60.7604C56.6416 59.3604 57.1749 57.7937 57.1749 56.0604C57.1749 53.9271 56.4082 52.2271 54.8749 50.9604C53.3416 49.6271 51.3416 48.5937 48.8749 47.8604C46.4749 47.0604 43.7749 46.3271 40.7749 45.6604C37.8416 44.9937 34.8749 44.2271 31.8749 43.3604C28.9416 42.4271 26.2416 41.2604 23.7749 39.8604C21.3749 38.3937 19.4082 36.4604 17.8749 34.0604C16.3416 31.6604 15.5749 28.5937 15.5749 24.8604C15.5749 21.0604 16.5749 17.5937 18.5749 14.4604C20.6416 11.2604 23.7416 8.72706 27.8749 6.86039C32.0749 4.92706 37.3749 3.96039 43.7749 3.96039C47.9749 3.96039 52.1416 4.49373 56.2749 5.5604C60.4082 6.62706 64.0082 8.16039 67.0749 10.1604L62.9749 20.2604C59.8416 18.3937 56.6082 17.0271 53.2749 16.1604C49.9416 15.2271 46.7416 14.7604 43.6749 14.7604C40.0749 14.7604 37.1416 15.1937 34.8749 16.0604C32.6749 16.9271 31.0416 18.0604 29.9749 19.4604C28.9749 20.8604 28.4749 22.4604 28.4749 24.2604C28.4749 26.3937 29.2082 28.1271 30.6749 29.4604C32.2082 30.7271 34.1749 31.7271 36.5749 32.4604C39.0416 33.1937 41.7749 33.9271 44.7749 34.6604C47.7749 35.3271 50.7416 36.0937 53.6749 36.9604C56.6749 37.8271 59.3749 38.9604 61.7749 40.3604C64.2416 41.7604 66.2082 43.6604 67.6749 46.0604C69.2082 48.4604 69.9749 51.4937 69.9749 55.1604C69.9749 58.8937 68.9416 62.3604 66.8749 65.5604C64.8749 68.6937 61.7749 71.2271 57.5749 73.1604C53.3749 75.0271 48.0749 75.9604 41.6749 75.9604Z" fill="white"/>
</g>
<mask id="mask2_7_211" style="mask-type:alpha" maskUnits="userSpaceOnUse" x="80" y="0" width="70" height="34">
<path d="M150 0H80V34H150V0Z" fill="#D9D9D9"/>
</mask>
<g mask="url(#mask2_7_211)">
<path d="M89.3831 74.9604V4.96039H122.183C130.583 4.96039 136.983 6.62706 141.383 9.96039C145.783 13.2271 147.983 17.6271 147.983 23.1604C147.983 26.8937 147.116 30.0937 145.383 32.7604C143.65 35.3604 141.316 37.3937 138.383 38.8604C135.516 40.2604 132.383 40.9604 128.983 40.9604L130.783 37.3604C134.716 37.3604 138.25 38.0937 141.383 39.5604C144.516 40.9604 146.983 43.0271 148.783 45.7604C150.65 48.4937 151.583 51.8937 151.583 55.9604C151.583 61.9604 149.283 66.6271 144.683 69.9604C140.083 73.2937 133.25 74.9604 124.183 74.9604H89.3831ZM102.383 64.7604H123.383C128.25 64.7604 131.983 63.9604 134.583 62.3604C137.183 60.7604 138.483 58.1937 138.483 54.6604C138.483 51.1937 137.183 48.6604 134.583 47.0604C131.983 45.3937 128.25 44.5604 123.383 44.5604H101.383V34.4604H120.783C125.316 34.4604 128.783 33.6604 131.183 32.0604C133.65 30.4604 134.883 28.0604 134.883 24.8604C134.883 21.5937 133.65 19.1604 131.183 17.5604C128.783 15.9604 125.316 15.1604 120.783 15.1604H102.383V64.7604Z" fill="#CB1B28"/>
</g>
<mask id="mask3_7_211" style="mask-type:alpha" maskUnits="userSpaceOnUse" x="80" y="45" width="75" height="32">
<path d="M155 45H80V77H155V45Z" fill="#D9D9D9"/>
</mask>
<g mask="url(#mask3_7_211)">
<path d="M89.3831 74.9604V4.96039H122.183C130.583 4.96039 136.983 6.62706 141.383 9.96039C145.783 13.2271 147.983 17.6271 147.983 23.1604C147.983 26.8937 147.116 30.0937 145.383 32.7604C143.65 35.3604 141.316 37.3937 138.383 38.8604C135.516 40.2604 132.383 40.9604 128.983 40.9604L130.783 37.3604C134.716 37.3604 138.25 38.0937 141.383 39.5604C144.516 40.9604 146.983 43.0271 148.783 45.7604C150.65 48.4937 151.583 51.8937 151.583 55.9604C151.583 61.9604 149.283 66.6271 144.683 69.9604C140.083 73.2937 133.25 74.9604 124.183 74.9604H89.3831ZM102.383 64.7604H123.383C128.25 64.7604 131.983 63.9604 134.583 62.3604C137.183 60.7604 138.483 58.1937 138.483 54.6604C138.483 51.1937 137.183 48.6604 134.583 47.0604C131.983 45.3937 128.25 44.5604 123.383 44.5604H101.383V34.4604H120.783C125.316 34.4604 128.783 33.6604 131.183 32.0604C133.65 30.4604 134.883 28.0604 134.883 24.8604C134.883 21.5937 133.65 19.1604 131.183 17.5604C128.783 15.9604 125.316 15.1604 120.783 15.1604H102.383V64.7604Z" fill="white"/>
</g>
</g>
<defs>
<clipPath id="clip0_7_211">
<rect width="155" height="80" fill="white"/>
</clipPath>
</defs>
</svg>
